<mxfile host="app.diagrams.net" agent="Mozilla/5.0 (Macintosh; Intel Mac OS X 10_15_7) AppleWebKit/537.36 (KHTML, like Gecko) Chrome/132.0.0.0 Safari/537.36" version="26.1.3">
  <diagram name="Page-1" id="QEPJnSVevLJNsxhsGY1Y">
    <mxGraphModel dx="1199" dy="696" grid="1" gridSize="10" guides="1" tooltips="1" connect="1" arrows="1" fold="1" page="1" pageScale="1" pageWidth="850" pageHeight="1100" math="0" shadow="0">
      <root>
        <mxCell id="0" />
        <mxCell id="1" parent="0" />
        <mxCell id="DmeaEBFg0idC-Js27RZw-1" value="" style="ellipse;html=1;shape=startState;fillColor=#000000;strokeColor=light-dark(#000000, #ff9090);" vertex="1" parent="1">
          <mxGeometry x="384" y="60" width="30" height="30" as="geometry" />
        </mxCell>
        <mxCell id="DmeaEBFg0idC-Js27RZw-2" value="" style="edgeStyle=orthogonalEdgeStyle;html=1;verticalAlign=bottom;endArrow=open;endSize=8;strokeColor=#000000;rounded=0;fillColor=#000000;" edge="1" parent="1" source="DmeaEBFg0idC-Js27RZw-1" target="DmeaEBFg0idC-Js27RZw-7">
          <mxGeometry relative="1" as="geometry">
            <mxPoint x="399" y="130" as="targetPoint" />
          </mxGeometry>
        </mxCell>
        <mxCell id="DmeaEBFg0idC-Js27RZw-3" style="edgeStyle=orthogonalEdgeStyle;rounded=0;orthogonalLoop=1;jettySize=auto;html=1;" edge="1" parent="1" source="DmeaEBFg0idC-Js27RZw-7" target="DmeaEBFg0idC-Js27RZw-9">
          <mxGeometry relative="1" as="geometry">
            <mxPoint x="290" y="200" as="targetPoint" />
          </mxGeometry>
        </mxCell>
        <mxCell id="DmeaEBFg0idC-Js27RZw-4" value="List" style="edgeLabel;html=1;align=center;verticalAlign=middle;resizable=0;points=[];" vertex="1" connectable="0" parent="DmeaEBFg0idC-Js27RZw-3">
          <mxGeometry x="-0.3199" y="3" relative="1" as="geometry">
            <mxPoint x="23" y="-18" as="offset" />
          </mxGeometry>
        </mxCell>
        <mxCell id="DmeaEBFg0idC-Js27RZw-5" style="edgeStyle=orthogonalEdgeStyle;rounded=0;orthogonalLoop=1;jettySize=auto;html=1;" edge="1" parent="1" source="DmeaEBFg0idC-Js27RZw-7" target="DmeaEBFg0idC-Js27RZw-21">
          <mxGeometry relative="1" as="geometry">
            <mxPoint x="570" y="190" as="targetPoint" />
          </mxGeometry>
        </mxCell>
        <mxCell id="DmeaEBFg0idC-Js27RZw-6" value="Map" style="edgeLabel;html=1;align=center;verticalAlign=middle;resizable=0;points=[];" vertex="1" connectable="0" parent="DmeaEBFg0idC-Js27RZw-5">
          <mxGeometry x="-0.5897" relative="1" as="geometry">
            <mxPoint x="9" y="-15" as="offset" />
          </mxGeometry>
        </mxCell>
        <mxCell id="DmeaEBFg0idC-Js27RZw-7" value="View Mode?" style="rhombus;whiteSpace=wrap;html=1;" vertex="1" parent="1">
          <mxGeometry x="359" y="120" width="80" height="50" as="geometry" />
        </mxCell>
        <mxCell id="DmeaEBFg0idC-Js27RZw-8" style="edgeStyle=orthogonalEdgeStyle;rounded=0;orthogonalLoop=1;jettySize=auto;html=1;" edge="1" parent="1" source="DmeaEBFg0idC-Js27RZw-9" target="DmeaEBFg0idC-Js27RZw-16">
          <mxGeometry relative="1" as="geometry" />
        </mxCell>
        <mxCell id="DmeaEBFg0idC-Js27RZw-9" value="View All Events in a List" style="rounded=1;whiteSpace=wrap;html=1;" vertex="1" parent="1">
          <mxGeometry x="140" y="190" width="120" height="40" as="geometry" />
        </mxCell>
        <mxCell id="DmeaEBFg0idC-Js27RZw-10" style="edgeStyle=orthogonalEdgeStyle;rounded=0;orthogonalLoop=1;jettySize=auto;html=1;entryX=0.5;entryY=0;entryDx=0;entryDy=0;" edge="1" parent="1" source="DmeaEBFg0idC-Js27RZw-29" target="DmeaEBFg0idC-Js27RZw-11">
          <mxGeometry relative="1" as="geometry" />
        </mxCell>
        <mxCell id="DmeaEBFg0idC-Js27RZw-11" value="" style="ellipse;html=1;shape=endState;fillColor=#000000;strokeColor=#000000;" vertex="1" parent="1">
          <mxGeometry x="385" y="540" width="30" height="30" as="geometry" />
        </mxCell>
        <mxCell id="DmeaEBFg0idC-Js27RZw-12" style="edgeStyle=orthogonalEdgeStyle;rounded=0;orthogonalLoop=1;jettySize=auto;html=1;exitX=0;exitY=0.5;exitDx=0;exitDy=0;" edge="1" parent="1" source="DmeaEBFg0idC-Js27RZw-16" target="DmeaEBFg0idC-Js27RZw-19">
          <mxGeometry relative="1" as="geometry">
            <mxPoint x="110" y="340" as="targetPoint" />
          </mxGeometry>
        </mxCell>
        <mxCell id="DmeaEBFg0idC-Js27RZw-13" value="No" style="edgeLabel;html=1;align=center;verticalAlign=middle;resizable=0;points=[];" vertex="1" connectable="0" parent="DmeaEBFg0idC-Js27RZw-12">
          <mxGeometry x="-0.6706" y="2" relative="1" as="geometry">
            <mxPoint x="-1" y="-12" as="offset" />
          </mxGeometry>
        </mxCell>
        <mxCell id="DmeaEBFg0idC-Js27RZw-14" style="edgeStyle=orthogonalEdgeStyle;rounded=0;orthogonalLoop=1;jettySize=auto;html=1;" edge="1" parent="1">
          <mxGeometry relative="1" as="geometry">
            <mxPoint x="279" y="320" as="targetPoint" />
            <mxPoint x="245" y="290" as="sourcePoint" />
            <Array as="points">
              <mxPoint x="280" y="290" />
              <mxPoint x="280" y="311" />
            </Array>
          </mxGeometry>
        </mxCell>
        <mxCell id="DmeaEBFg0idC-Js27RZw-15" value="Yes" style="edgeLabel;html=1;align=center;verticalAlign=middle;resizable=0;points=[];" vertex="1" connectable="0" parent="DmeaEBFg0idC-Js27RZw-14">
          <mxGeometry x="-0.5556" y="-1" relative="1" as="geometry">
            <mxPoint x="-4" y="-11" as="offset" />
          </mxGeometry>
        </mxCell>
        <mxCell id="DmeaEBFg0idC-Js27RZw-16" value="Are there available events?" style="rhombus;whiteSpace=wrap;html=1;" vertex="1" parent="1">
          <mxGeometry x="155" y="250" width="90" height="80" as="geometry" />
        </mxCell>
        <mxCell id="DmeaEBFg0idC-Js27RZw-17" style="edgeStyle=orthogonalEdgeStyle;rounded=0;orthogonalLoop=1;jettySize=auto;html=1;entryX=0.5;entryY=0;entryDx=0;entryDy=0;exitX=0.5;exitY=1;exitDx=0;exitDy=0;" edge="1" parent="1" source="DmeaEBFg0idC-Js27RZw-27" target="DmeaEBFg0idC-Js27RZw-11">
          <mxGeometry relative="1" as="geometry">
            <Array as="points">
              <mxPoint x="749" y="510" />
              <mxPoint x="400" y="510" />
            </Array>
          </mxGeometry>
        </mxCell>
        <mxCell id="DmeaEBFg0idC-Js27RZw-18" style="edgeStyle=orthogonalEdgeStyle;rounded=0;orthogonalLoop=1;jettySize=auto;html=1;entryX=0.5;entryY=0;entryDx=0;entryDy=0;exitX=0.5;exitY=1;exitDx=0;exitDy=0;" edge="1" parent="1" target="DmeaEBFg0idC-Js27RZw-11">
          <mxGeometry relative="1" as="geometry">
            <mxPoint x="110" y="350" as="sourcePoint" />
            <mxPoint x="400" y="560" as="targetPoint" />
            <Array as="points">
              <mxPoint x="110" y="510" />
              <mxPoint x="400" y="510" />
            </Array>
          </mxGeometry>
        </mxCell>
        <mxCell id="DmeaEBFg0idC-Js27RZw-19" value="View Message &quot;No Events Found.&quot;&lt;span id=&quot;docs-internal-guid-3a6df902-7fff-cb4c-8d02-dc21b5fda8ad&quot;&gt;&lt;span style=&quot;font-size: 13pt; font-family: Arial, sans-serif; background-color: transparent; font-variant-numeric: normal; font-variant-east-asian: normal; font-variant-alternates: normal; font-variant-position: normal; font-variant-emoji: normal; vertical-align: baseline; white-space-collapse: preserve;&quot;&gt;&amp;nbsp; &lt;/span&gt;&lt;/span&gt;" style="rounded=1;whiteSpace=wrap;html=1;" vertex="1" parent="1">
          <mxGeometry x="50" y="320" width="120" height="40" as="geometry" />
        </mxCell>
        <mxCell id="DmeaEBFg0idC-Js27RZw-20" style="edgeStyle=orthogonalEdgeStyle;rounded=0;orthogonalLoop=1;jettySize=auto;html=1;exitX=0.5;exitY=1;exitDx=0;exitDy=0;entryX=0.5;entryY=0;entryDx=0;entryDy=0;" edge="1" parent="1" source="DmeaEBFg0idC-Js27RZw-21" target="DmeaEBFg0idC-Js27RZw-26">
          <mxGeometry relative="1" as="geometry" />
        </mxCell>
        <mxCell id="DmeaEBFg0idC-Js27RZw-21" value="View All Events as Pins on an interactive Map" style="rounded=1;whiteSpace=wrap;html=1;" vertex="1" parent="1">
          <mxGeometry x="569" y="180" width="120" height="50" as="geometry" />
        </mxCell>
        <mxCell id="DmeaEBFg0idC-Js27RZw-22" style="edgeStyle=orthogonalEdgeStyle;rounded=0;orthogonalLoop=1;jettySize=auto;html=1;entryX=0.75;entryY=0;entryDx=0;entryDy=0;" edge="1" parent="1" source="DmeaEBFg0idC-Js27RZw-26" target="DmeaEBFg0idC-Js27RZw-29">
          <mxGeometry relative="1" as="geometry">
            <mxPoint x="579" y="347" as="targetPoint" />
          </mxGeometry>
        </mxCell>
        <mxCell id="DmeaEBFg0idC-Js27RZw-23" value="Yes" style="edgeLabel;html=1;align=center;verticalAlign=middle;resizable=0;points=[];" vertex="1" connectable="0" parent="DmeaEBFg0idC-Js27RZw-22">
          <mxGeometry x="-0.4709" relative="1" as="geometry">
            <mxPoint y="-10" as="offset" />
          </mxGeometry>
        </mxCell>
        <mxCell id="DmeaEBFg0idC-Js27RZw-24" style="edgeStyle=orthogonalEdgeStyle;rounded=0;orthogonalLoop=1;jettySize=auto;html=1;entryX=0.5;entryY=0;entryDx=0;entryDy=0;exitX=1;exitY=0.5;exitDx=0;exitDy=0;" edge="1" parent="1" source="DmeaEBFg0idC-Js27RZw-26" target="DmeaEBFg0idC-Js27RZw-27">
          <mxGeometry relative="1" as="geometry">
            <mxPoint x="729" y="340" as="targetPoint" />
          </mxGeometry>
        </mxCell>
        <mxCell id="DmeaEBFg0idC-Js27RZw-25" value="No" style="edgeLabel;html=1;align=center;verticalAlign=middle;resizable=0;points=[];" vertex="1" connectable="0" parent="DmeaEBFg0idC-Js27RZw-24">
          <mxGeometry x="-0.0933" y="-1" relative="1" as="geometry">
            <mxPoint x="-19" y="-11" as="offset" />
          </mxGeometry>
        </mxCell>
        <mxCell id="DmeaEBFg0idC-Js27RZw-26" value="Are there available events?" style="rhombus;whiteSpace=wrap;html=1;" vertex="1" parent="1">
          <mxGeometry x="584" y="250" width="90" height="80" as="geometry" />
        </mxCell>
        <mxCell id="DmeaEBFg0idC-Js27RZw-27" value="View the Map with no Event Pins" style="rounded=1;whiteSpace=wrap;html=1;" vertex="1" parent="1">
          <mxGeometry x="689" y="390" width="120" height="50" as="geometry" />
        </mxCell>
        <mxCell id="DmeaEBFg0idC-Js27RZw-28" value="" style="group" vertex="1" connectable="0" parent="1">
          <mxGeometry x="340" y="440" width="120" height="40" as="geometry" />
        </mxCell>
        <mxCell id="DmeaEBFg0idC-Js27RZw-29" value="Filter Events" style="rounded=1;whiteSpace=wrap;html=1;" vertex="1" parent="DmeaEBFg0idC-Js27RZw-28">
          <mxGeometry width="120" height="40" as="geometry" />
        </mxCell>
        <mxCell id="DmeaEBFg0idC-Js27RZw-30" value="" style="shape=image;verticalLabelPosition=bottom;labelBackgroundColor=default;verticalAlign=top;aspect=fixed;imageAspect=0;image=data:image/png,iVBORw0KGgoAAAANSUhEUgAAACAAAAAkCAYAAADo6zjiAAABVGlDQ1BJQ0MgUHJvZmlsZQAAGJV1kD9Lw2AQxp/YSqUKdigi6JDBwUIVqXVxKW0HFRxCVbRdJE1jKqbxJYkUv4GfwMnZxUWnrh2KkwiiKDiIbroJQhYN8d5ETat4cNyPh+f+cEAfZMb0KICGYZulhYK4Ua6IsRdEMIZhzGNAViyWl6RlsuC79oZzC4HX6yk+a9ONifGH0edK52rkqf1Y++vviXhNtRSqH5STCjNtQJgglpo240yJpElHER9w1gI+4lwN+NT3rJaKxB3ihFKXaa9wQ5yudulaFzf0PeXrBn79kGqsrfBKOY5FSBCRQRbNf3xZ31fELhj2YWIbGuqwqStPCoMOlXgJBhRMI+1Pm6Gc4//9/bdQsy6A3CXBTqiVW8DJK60+C7UU3ZAsAOcJJpvyzzcFJ2ptzWYCHqS+/kPPe1sHYinAvfO895bnucdA5B5oO5/nvWME7k7+vQAAAFZlWElmTU0AKgAAAAgAAYdpAAQAAAABAAAAGgAAAAAAA5KGAAcAAAASAAAARKACAAQAAAABAAAAIKADAAQAAAABAAAAJAAAAABBU0NJSQAAAFNjcmVlbnNob3TkzLd7AAAB1GlUWHRYTUw6Y29tLmFkb2JlLnhtcAAAAAAAPHg6eG1wbWV0YSB4bWxuczp4PSJhZG9iZTpuczptZXRhLyIgeDp4bXB0az0iWE1QIENvcmUgNi4wLjAiPgogICA8cmRmOlJERiB4bWxuczpyZGY9Imh0dHA6Ly93d3cudzMub3JnLzE5OTkvMDIvMjItcmRmLXN5bnRheC1ucyMiPgogICAgICA8cmRmOkRlc2NyaXB0aW9uIHJkZjphYm91dD0iIgogICAgICAgICAgICB4bWxuczpleGlmPSJodHRwOi8vbnMuYWRvYmUuY29tL2V4aWYvMS4wLyI+CiAgICAgICAgIDxleGlmOlBpeGVsWURpbWVuc2lvbj4zNjwvZXhpZjpQaXhlbFlEaW1lbnNpb24+CiAgICAgICAgIDxleGlmOlBpeGVsWERpbWVuc2lvbj4zMjwvZXhpZjpQaXhlbFhEaW1lbnNpb24+CiAgICAgICAgIDxleGlmOlVzZXJDb21tZW50PlNjcmVlbnNob3Q8L2V4aWY6VXNlckNvbW1lbnQ+CiAgICAgIDwvcmRmOkRlc2NyaXB0aW9uPgogICA8L3JkZjpSREY+CjwveDp4bXBtZXRhPgqsYOA4AAADwElEQVRYCe2XyU4jQQyGnQUIO2FPJEAIwYGAuHDghITEM/Cw8BCIC0IsISJhFwmBBMI6w2eNUamnO6H7ABppLHWqY5ftv1wuuzr264PkByn+g77VdTIqgLe3N3l6epLX11eJx+PS1tYmyWRSEolEKJORAdRqNTk4OJC7uzvp7e2VgYEBGR0dlf7+/u8BgOPd3V25vLyUkZERmZyclFQq9X0AiMDe3p7k83l1zrIzmUyo1TM58hY8PDxIsViUQqEgsVhMowAvLEU+BZxeEpEk5Hl/f5coJzoyAFZN1pP9PGQ/pyEshdcI66HF/H8XAOEn5GwFI1sQtggRnMgRcAEYCHhhyVeDbKbM2kOWk/EQxYakOzk5kfv7e51Tr9fl5uZGeel0WuXoYgdwHR0d0t3drXxAwjPyBYDDq6srOTs7k4uLCymXy/Ly8qKKGCDUh4eHcn5+rqWYOYDCYalU0tNhR5PtGRsbk7m5ORkfH/8E0hQAqwUAlQ5HAIHX3t6ujlgBJbhSrsjj46NUKhXNA9PDKQAajYbqzczMSGdnpzq3CDYFYBHY39+XnZ0dOT09VQc0HFYKVatVqdVrugUA4gEAfN6JGJFjmwA4PT0tExMTwha55LsFVDUMEVqe6+trbTK2l5YjVnwYAcbqWCkAmIPz4+Nj5QGGiGDbJV8AKBMFqKurS/dufn5e1tbWtOE8Pz9rJ9zc3FSAw8PDusJcLidTU1MaLfJja2tLk9PKNHa95AuAFUCsqq+vT4aGhmRlZUU2Njakp6dHZbRfcoRV8b60tCTr6+s6MoEmRZ5sb29/lmmzqwb+/LSsA1ZkSEBzji6hthPBiJxoGfEOz8+pzWFsCYDwWUazp0a0XvgkHgnHuaceGPHOVvmF3eYwtgTgTnbfMdzKuDs/6D0ygCCDYfn/ATSNwFf2uNmcZjLbqkAApszoPqbI6PJtviv3zvHK+B8IgPPLQx3gsf9mxJXZHJPZaDpBcua1BOAaMcM2msz+u6PJbHRl7ntgKabqUYIpMlQ6Pr8wZkRjogfwhcQnGZ0SnhE6dL5sNqsjn2zIiYYRRc4XACV0dnZWFeiKKNHT4RvhfHV1VWhSg4ODks1kFbDJAby8vKx/uQ0tLiyq3AWJMPaRPH+1KFg0GcqrdUVaLYYsCkSGzzOLkLVjuy9QopFTklkAutggMthAjswXgK3CRgCZY+N9ZbS1eXW5Rd3e3mq39N0Cr3GvAa886D96BoI5FlluSKViSY7yR/45EGQwCt/A0xlJWG7P3LIKH/cFbta/AXw3EGr69xsAAAAAAElFTkSuQmCC;" vertex="1" parent="DmeaEBFg0idC-Js27RZw-28">
          <mxGeometry x="100" y="17.5" width="20" height="22.5" as="geometry" />
        </mxCell>
        <mxCell id="DmeaEBFg0idC-Js27RZw-31" style="edgeStyle=orthogonalEdgeStyle;rounded=0;orthogonalLoop=1;jettySize=auto;html=1;entryX=0.25;entryY=0;entryDx=0;entryDy=0;" edge="1" parent="1" source="DmeaEBFg0idC-Js27RZw-32" target="DmeaEBFg0idC-Js27RZw-29">
          <mxGeometry relative="1" as="geometry" />
        </mxCell>
        <mxCell id="DmeaEBFg0idC-Js27RZw-32" value="&lt;span id=&quot;docs-internal-guid-d7cafb1e-7fff-828e-161c-5bdd2941a348&quot;&gt;&lt;span style=&quot;font-family: Arial, sans-serif; background-color: transparent; font-variant-numeric: normal; font-variant-east-asian: normal; font-variant-alternates: normal; font-variant-position: normal; font-variant-emoji: normal; vertical-align: baseline; white-space-collapse: preserve;&quot;&gt;&lt;font style=&quot;font-size: 12px;&quot;&gt;View a List of Events sorted based on Recommendations&lt;/font&gt;&lt;/span&gt;&lt;/span&gt;" style="rounded=1;whiteSpace=wrap;html=1;" vertex="1" parent="1">
          <mxGeometry x="220" y="320" width="125" height="50" as="geometry" />
        </mxCell>
      </root>
    </mxGraphModel>
  </diagram>
</mxfile>
